<svg width="47" height="76" viewBox="0 0 47 76" fill="none" xmlns="http://www.w3.org/2000/svg">
<path d="M16.5882 74.9982V3.07359C18.1833 2.09403 21.4259 0.404282 25.8974 0.0614349C32.2517 -0.428346 36.9585 2.143 38.5014 3.07359C39.9133 3.97969 41.7699 5.42454 43.4175 7.62857C46.4769 11.6938 46.9215 15.8814 47 17.7915C47 36.8685 47 55.9211 47 74.9982H36.4094C36.4094 55.8965 36.4094 36.795 36.4094 17.6936C36.3833 16.9589 36.0694 12.6488 32.4347 10.3224C32.0686 10.102 31.0488 9.48973 29.5583 9.17138C26.2633 8.43671 22.7594 9.46524 20.4321 11.8652C21.112 11.8162 24.6684 11.5468 27.8062 13.9712C28.2246 14.2896 28.5908 14.6324 28.9307 14.9753C29.0352 15.0733 29.7675 15.8569 30.3689 16.9589C31.3625 18.7466 31.5457 20.5832 31.5979 21.4158C31.5979 27.6607 31.5979 33.9054 31.5979 40.1746C27.8325 40.1746 24.0668 40.1746 20.2752 40.15V43.0643C24.0408 43.0643 27.8325 43.0643 31.5979 43.0643C31.5979 53.717 31.5979 64.3454 31.5979 74.9982C26.5773 74.9982 21.5826 74.9982 16.5882 74.9982Z" fill="#F2F2F2"/>
<path d="M16.6405 3.09734C14.6531 4.90954 13.0057 7.0401 11.9335 9.41554C11.4106 10.591 11.0967 11.8399 10.9137 13.0889C10.7568 14.3623 10.783 15.6358 10.8352 16.9337C10.9137 18.2316 11.0184 19.554 10.966 20.8764C10.966 22.1988 10.7568 23.5458 10.3908 24.8438C9.6585 27.4395 8.27256 29.7905 6.5467 31.8721C5.68386 32.925 4.74256 33.8802 3.80105 34.8353C2.85974 35.7903 1.86597 36.7453 1.1601 37.8228C0.819962 38.3616 0.558515 38.9739 0.532493 39.5861C0.506266 39.8801 0.584737 40.1984 0.663213 40.4922L0.846188 40.9086L1.10764 41.3004C1.50003 41.7901 2.07517 42.133 2.65053 42.4514C3.25191 42.7697 3.87952 43.0391 4.50713 43.3329C5.13474 43.6269 5.76234 43.9452 6.33749 44.4104C6.46843 44.533 6.62517 44.6554 6.7559 44.7778L7.09582 45.2186L7.35749 45.7083C7.43576 45.8799 7.46199 46.0758 7.51423 46.2471C7.67119 46.9819 7.54046 47.741 7.22676 48.3777C6.93908 49.0144 6.52067 49.6021 6.18075 50.141C5.81459 50.6796 5.47467 51.2184 5.36996 51.7573C5.26546 52.2715 5.42242 52.8102 5.78836 53.2266C6.15452 53.6428 6.67743 53.9857 7.27901 54.2551C7.85416 54.5245 8.508 54.7204 9.16162 54.8672L10.5476 55.2101L9.2401 55.7979C8.7172 56.0427 8.24655 56.3367 7.82814 56.704C7.72344 56.802 7.61894 56.8999 7.51423 56.9978L7.20053 57.3163C6.99133 57.5122 6.80835 57.7325 6.70365 57.9284C6.6514 58.0265 6.62518 58.0998 6.59915 58.1978C6.57293 58.2713 6.57293 58.3692 6.59915 58.4181C6.59915 58.4916 6.80836 58.7367 6.99133 58.908C7.40974 59.2999 7.88039 59.6917 8.32502 60.0835L9.73698 61.2345L9.81546 61.308C9.86771 61.3569 9.91996 61.4304 9.97241 61.4794C10.0509 61.5774 10.1031 61.6998 10.1292 61.7977C10.1554 61.8958 10.1816 61.9936 10.2076 62.0671C10.2339 62.165 10.2339 62.2385 10.2339 62.312C10.2601 62.6303 10.2601 62.9487 10.2601 63.267C10.2076 64.4671 10.0509 65.6426 9.94619 66.7935C9.84169 67.9445 9.78923 69.12 9.86771 70.271C9.91996 70.8342 9.99844 71.3974 10.1554 71.9362C10.2339 72.2056 10.3646 72.4505 10.4953 72.6953C10.626 72.9158 10.8092 73.1363 11.0184 73.3322C11.855 74.0913 13.0842 74.4586 14.287 74.7034C15.4899 74.9239 16.745 74.9974 18.0002 75.0218V75.1198C16.745 75.2177 15.4637 75.2177 14.2085 75.0709C12.9533 74.9239 11.6458 74.6056 10.6 73.7484C10.3384 73.5279 10.1292 73.2831 9.94619 73.0136C9.76321 72.7444 9.60626 72.4505 9.50176 72.1567C9.26633 71.5689 9.16163 70.9566 9.08336 70.3688C8.95263 69.1689 8.97865 67.9691 9.05713 66.7935C9.10938 65.618 9.2401 64.4425 9.2401 63.2916C9.2401 62.9978 9.2401 62.7284 9.21408 62.4833C9.18785 62.3609 9.18785 62.2385 9.1356 62.165C9.1356 62.1406 9.10938 62.116 9.10938 62.116C9.10938 62.116 9.10938 62.0917 9.08336 62.0917L9.00488 62.0182L7.56669 60.8672C7.09583 60.4754 6.59915 60.1079 6.12829 59.6428C5.89307 59.3977 5.63162 59.2018 5.44844 58.7121C5.31771 58.2468 5.44843 57.8306 5.63162 57.4877C5.81459 57.1448 6.05002 56.9245 6.25923 56.6794L6.59915 56.3367C6.72988 56.2143 6.83438 56.1162 6.9651 55.9938C7.46199 55.553 8.03734 55.2101 8.66495 54.9407L8.74343 55.8714C8.03734 55.7 7.35749 55.4795 6.67742 55.1612C6.02379 54.8428 5.36996 54.451 4.84706 53.8387C4.35018 53.2509 4.11495 52.3939 4.2717 51.6348C4.42865 50.8755 4.87329 50.2878 5.23923 49.7246C5.63162 49.1614 6.0238 48.6471 6.28525 48.1083C6.5467 47.5695 6.67743 46.9819 6.57293 46.4185C6.49445 45.8553 6.18075 45.341 5.7101 44.9492C5.23924 44.533 4.66408 44.2145 4.06249 43.8961C3.46111 43.5778 2.83351 43.284 2.23213 42.9411C1.63075 42.5982 1.02917 42.182 0.58474 41.5942L0.297059 41.1534L0.114084 40.6635C0.00937922 40.3208 -0.0166444 39.9779 0.00937686 39.635C0.0356046 38.9494 0.349313 38.2881 0.715468 37.7249C1.4738 36.5984 2.49358 35.6922 3.4351 34.7128C4.3764 33.7576 5.29169 32.7782 6.10227 31.7251C7.69741 29.6191 8.9264 27.2435 9.50176 24.7457C10.1292 22.2479 9.94618 19.6765 9.84169 17.0561C9.78923 15.7582 9.78923 14.4113 9.99844 13.0889C10.2076 11.7665 10.6 10.4686 11.2274 9.26859C12.4304 6.84418 14.2608 4.76261 16.4313 3.12184L16.6405 3.09734Z" fill="#F2F2F2"/>
</svg>
